<svg width="1280" height="720" viewBox="0 0 1280 720" fill="none" xmlns="http://www.w3.org/2000/svg">
  <rect width="1280" height="720" fill="#0b0d10"/>
  <rect x="1" y="1" width="1278" height="718" stroke="#29303a" stroke-width="2"/>

  <g opacity="0.22">
    <path d="M0 120H1280M0 240H1280M0 360H1280M0 480H1280M0 600H1280" stroke="#29303a"/>
    <path d="M160 0V720M320 0V720M480 0V720M640 0V720M800 0V720M960 0V720M1120 0V720" stroke="#29303a"/>
  </g>

  <g transform="translate(56 54)">
    <rect width="188" height="452" rx="6" fill="#101318" fill-opacity="0.94" stroke="#29303a"/>
    <text x="14" y="30" fill="#d9dee7" font-family="Consolas, monospace" font-size="14" font-weight="700">FALLING SAND</text>
    <text x="156" y="30" fill="#7d8794" font-family="Consolas, monospace" font-size="12">p5</text>
    <line x1="14" y1="49" x2="174" y2="49" stroke="#29303a"/>

    <text x="14" y="82" fill="#7d8794" font-family="Consolas, monospace" font-size="10" font-weight="700">TOOL</text>
    <g font-family="Consolas, monospace" font-size="11" font-weight="700">
      <rect x="14" y="94" width="76" height="32" rx="4" fill="#151922" stroke="#f0c15d"/>
      <text x="39" y="114" fill="#f0c15d">Sand</text>
      <rect x="98" y="94" width="76" height="32" rx="4" fill="#151922" stroke="#29303a"/>
      <text x="121" y="114" fill="#d9dee7">Water</text>
      <rect x="14" y="134" width="76" height="32" rx="4" fill="#151922" stroke="#29303a"/>
      <text x="40" y="154" fill="#d9dee7">Wall</text>
      <rect x="98" y="134" width="76" height="32" rx="4" fill="#151922" stroke="#29303a"/>
      <text x="109" y="154" fill="#d9dee7">S Source</text>
      <rect x="14" y="174" width="76" height="32" rx="4" fill="#151922" stroke="#29303a"/>
      <text x="25" y="194" fill="#d9dee7">W Source</text>
      <rect x="98" y="174" width="76" height="32" rx="4" fill="#151922" stroke="#29303a"/>
      <text x="119" y="194" fill="#d9dee7">Erase</text>
    </g>

    <text x="14" y="238" fill="#7d8794" font-family="Consolas, monospace" font-size="10" font-weight="700">COLOR</text>
    <rect x="14" y="250" width="76" height="32" rx="4" fill="#151922" stroke="#f0c15d"/>
    <text x="28" y="270" fill="#f0c15d" font-family="Consolas, monospace" font-size="11" font-weight="700">Rainbow</text>
    <rect x="98" y="250" width="76" height="32" rx="4" fill="#151922" stroke="#29303a"/>
    <text x="123" y="270" fill="#d9dee7" font-family="Consolas, monospace" font-size="11" font-weight="700">Warm</text>

    <text x="14" y="318" fill="#7d8794" font-family="Consolas, monospace" font-size="11" font-weight="700">Size</text>
    <text x="160" y="318" fill="#7d8794" font-family="Consolas, monospace" font-size="11" font-weight="700">5</text>
    <line x1="14" y1="337" x2="174" y2="337" stroke="#29303a" stroke-width="4"/>
    <circle cx="74" cy="337" r="6" fill="#f0c15d"/>

    <text x="14" y="372" fill="#7d8794" font-family="Consolas, monospace" font-size="11" font-weight="700">Speed</text>
    <text x="150" y="372" fill="#7d8794" font-family="Consolas, monospace" font-size="11" font-weight="700">1x</text>
    <line x1="14" y1="391" x2="174" y2="391" stroke="#29303a" stroke-width="4"/>
    <circle cx="54" cy="391" r="6" fill="#f0c15d"/>
  </g>

  <g transform="translate(310 60)">
    <rect x="72" y="98" width="15" height="412" rx="2" fill="#707784"/>
    <rect x="72" y="495" width="630" height="15" rx="2" fill="#707784"/>
    <rect x="687" y="98" width="15" height="412" rx="2" fill="#707784"/>

    <g opacity="0.94">
      <rect x="182" y="128" width="18" height="18" rx="3" fill="#4dc1f6"/>
      <rect x="204" y="128" width="18" height="18" rx="3" fill="#4dc1f6"/>
      <rect x="193" y="150" width="18" height="18" rx="3" fill="#4dc1f6"/>
      <rect x="540" y="112" width="18" height="18" rx="3" fill="#ffd665"/>
      <rect x="562" y="112" width="18" height="18" rx="3" fill="#ffd665"/>
      <rect x="551" y="134" width="18" height="18" rx="3" fill="#ffd665"/>
    </g>

    <g opacity="0.78">
      <path d="M95 413C160 386 218 405 276 384C336 363 392 384 448 360C515 332 575 367 676 344V495H95V413Z" fill="#2f9bd9"/>
      <path d="M96 440C158 421 224 432 286 411C360 386 412 414 482 389C548 365 607 392 676 372V495H96V440Z" fill="#55c9f3" fill-opacity="0.65"/>
    </g>

    <g>
      <circle cx="425" cy="192" r="5" fill="#ff5cb8"/>
      <circle cx="438" cy="208" r="5" fill="#ffd665"/>
      <circle cx="417" cy="220" r="5" fill="#7ef27b"/>
      <circle cx="452" cy="232" r="5" fill="#68d5ff"/>
      <circle cx="407" cy="244" r="5" fill="#ff885a"/>
      <circle cx="431" cy="258" r="5" fill="#a875ff"/>
      <circle cx="465" cy="272" r="5" fill="#fff16a"/>
      <circle cx="401" cy="286" r="5" fill="#57e6c5"/>
      <circle cx="444" cy="302" r="5" fill="#ff5cb8"/>
      <circle cx="478" cy="318" r="5" fill="#ffd665"/>
      <circle cx="414" cy="334" r="5" fill="#7ef27b"/>
      <circle cx="455" cy="350" r="5" fill="#68d5ff"/>
      <circle cx="489" cy="366" r="5" fill="#ff885a"/>
      <circle cx="432" cy="382" r="5" fill="#a875ff"/>
      <circle cx="469" cy="398" r="5" fill="#fff16a"/>
    </g>

    <g opacity="0.95">
      <path d="M356 464C393 441 431 447 470 430C506 415 535 432 573 410C604 392 638 409 675 390V495H356V464Z" fill="#d9a63b"/>
      <path d="M388 480C430 458 470 462 512 446C552 431 605 445 675 422V495H388V480Z" fill="#f0c15d"/>
    </g>
  </g>

  <g font-family="Consolas, monospace">
    <text x="310" y="640" fill="#d9dee7" font-size="30" font-weight="700">A tiny falling-sand sandbox, rebuilt like a real app.</text>
    <text x="310" y="676" fill="#7d8794" font-size="18">Typed-array grid · data-driven materials · sources · draggable controls · GitHub Pages deploy</text>
  </g>
</svg>
